<svg viewBox="0 0 16 16"><path fill="#828282" d="m 14.142524,0.56121754 -12.0718882,0 c -0.9485055,0 -1.72455553,0.77604996 -1.72455553,1.72455546 l 0,12.071888 c 0,0.949368 0.77605003,1.724556 1.72455553,1.724556 l 12.0718882,0 c 0.948506,0 1.724556,-0.775188 1.724556,-1.724556 l 0,-12.071888 c 0,-0.9485055 -0.77605,-1.72455546 -1.724556,-1.72455546 z M 8.0927839,13.084077 c 2.6377071,0 4.7752941,-2.139311 4.7752941,-4.7761564 0,-0.29145 -0.03708,-0.5725523 -0.08882,-0.8484807 l 1.363261,0 0,6.2221961 c 0,0.32939 -0.267306,0.594971 -0.597558,0.594971 l -10.8767717,0 c -0.3302524,0 -0.5975585,-0.265581 -0.5975585,-0.594971 l 0,-6.2221961 1.3356683,0 c -0.052599,0.2759284 -0.089677,0.5570307 -0.089677,0.8484807 0,2.6377074 2.1393111,4.7761564 4.7761567,4.7761564 z M 5.1084404,8.3079206 c 0,-1.6486745 1.3365305,-2.9843429 2.9852058,-2.9843429 1.6478129,0 2.9852048,1.3356684 2.9852048,2.9843429 0,1.6486755 -1.3373919,2.9852054 -2.9852048,2.9852054 -1.6495376,0 -2.9852058,-1.3365299 -2.9852058,-2.9852054 z m 8.4365256,-3.4353142 -1.392579,0 c -0.32939,0 -0.596696,-0.2690306 -0.596696,-0.5966962 l 0,-1.3943032 c 0,-0.3293901 0.267306,-0.595834 0.595834,-0.595834 l 1.392578,0 c 0.331115,0 0.598421,0.2664439 0.598421,0.595834 l 0,1.3934409 c 0,0.3285279 -0.267306,0.5975585 -0.597558,0.5975585 z"/></svg>
