<?xml version="1.0" encoding="UTF-8" standalone="no"?>
<!-- Created with Inkscape (http://www.inkscape.org/) -->

<svg
   xmlns:dc="http://purl.org/dc/elements/1.1/"
   xmlns:cc="http://creativecommons.org/ns#"
   xmlns:rdf="http://www.w3.org/1999/02/22-rdf-syntax-ns#"
   xmlns:svg="http://www.w3.org/2000/svg"
   xmlns="http://www.w3.org/2000/svg"
   xmlns:sodipodi="http://sodipodi.sourceforge.net/DTD/sodipodi-0.dtd"
   xmlns:inkscape="http://www.inkscape.org/namespaces/inkscape"
   id="svg2"
   version="1.1"
   inkscape:version="0.91 r13725"
   xml:space="preserve"
   width="206.98875"
   height="117.19365"
   viewBox="0 0 206.98875 117.19365"
   sodipodi:docname="Neural_Network.svg"><metadata
     id="metadata8"><rdf:RDF><cc:Work
         rdf:about=""><dc:format>image/svg+xml</dc:format><dc:type
           rdf:resource="http://purl.org/dc/dcmitype/StillImage" /><dc:title></dc:title></cc:Work></rdf:RDF></metadata><defs
     id="defs6" /><sodipodi:namedview
     pagecolor="#ffffff"
     bordercolor="#666666"
     borderopacity="1"
     objecttolerance="10"
     gridtolerance="10"
     guidetolerance="10"
     inkscape:pageopacity="0"
     inkscape:pageshadow="2"
     inkscape:window-width="1276"
     inkscape:window-height="755"
     id="namedview4"
     showgrid="false"
     inkscape:zoom="3.3744267"
     inkscape:cx="97.998561"
     inkscape:cy="71.506718"
     inkscape:window-x="4"
     inkscape:window-y="23"
     inkscape:window-maximized="1"
     inkscape:current-layer="g16"
     fit-margin-top="0"
     fit-margin-left="0"
     fit-margin-right="0"
     fit-margin-bottom="0" /><g
     id="g10"
     inkscape:groupmode="layer"
     inkscape:label="draw_nn"
     transform="matrix(1.25,0,0,-1.25,-35.92,117.1925)"><g
       id="g12"
       transform="translate(40.414,90.068)"><g
         id="g14"><g
           id="g16"><g
             id="g18"><g
               id="g20"><path
                 d="m 8.46835,-39.08034 c 0,4.67699 -3.79136,8.46836 -8.46835,8.46836 -4.67699,0 -8.46835,-3.79137 -8.46835,-8.46836 0,-4.677 3.79136,-8.46835 8.46835,-8.46835 4.67699,0 8.46835,3.79135 8.46835,8.46835 z"
                 style="fill:#80ff80;fill-opacity:1;fill-rule:nonzero;stroke:none"
                 id="path22"
                 inkscape:connector-curvature="0" /></g><g
               id="g24"
               transform="translate(-5.082,-40.478)"><g
                 id="g40"
                 transform="translate(5.082,40.478)" /></g></g><g
             id="g42"><g
               id="g44"><path
                 d="m 8.46835,-67.42715 c 0,4.677 -3.79136,8.46835 -8.46835,8.46835 -4.67699,0 -8.46835,-3.79135 -8.46835,-8.46835 0,-4.67699 3.79136,-8.46836 8.46835,-8.46836 4.67699,0 8.46835,3.79137 8.46835,8.46836 z"
                 style="fill:#80ff80;fill-opacity:1;fill-rule:nonzero;stroke:none"
                 id="path46"
                 inkscape:connector-curvature="0" /></g></g><g
             id="g66"
             transform="translate(0,-6.4)"><g
               id="g68"
               transform="translate(-30.452,3.542)"><g
                 id="g70"
                 transform="translate(18.414,0)"><g
                   id="g72"
                   transform="translate(-28.376,-93.61)"><text
                     transform="matrix(1,0,0,-1,28.376,93.61)"
                     style="font-variant:normal;font-weight:normal;font-size:9.96259975px;font-family:CMR10;-inkscape-font-specification:CMR10;writing-mode:lr-tb;fill:#000000;fill-opacity:1;fill-rule:nonzero;stroke:none"
                     id="text74"><tspan
                       x="0"
                       y="0"
                       sodipodi:role="line"
                       id="tspan78"
                       style="font-style:normal;font-variant:normal;font-weight:300;font-stretch:normal;font-size:8px;font-family:'PingFang TC';-inkscape-font-specification:'PingFang TC Light'">输入层</tspan></text>
<g
                     id="g80"
                     transform="translate(9.962,93.61)" /></g></g><g
                 id="g82"
                 transform="translate(30.452,-3.542)" /></g></g><g
             id="g84"><g
               id="g86"><path
                 d="m 79.33539,-24.90694 c 0,4.67699 -3.79135,8.46836 -8.46836,8.46836 -4.67698,0 -8.46835,-3.79137 -8.46835,-8.46836 0,-4.677 3.79137,-8.46835 8.46835,-8.46835 4.67701,0 8.46836,3.79135 8.46836,8.46835 z"
                 style="fill:#9999ff;fill-opacity:1;fill-rule:nonzero;stroke:none"
                 id="path88"
                 inkscape:connector-curvature="0" /></g><g
               id="g90"
               transform="translate(70.866,-24.907)"><g
                 id="g92" /><g
                 id="g94"
                 transform="translate(-70.866,24.907)" /></g></g><g
             id="g96"><g
               id="g98"><path
                 d="m 79.33539,-53.25375 c 0,4.677 -3.79135,8.46835 -8.46836,8.46835 -4.67698,0 -8.46835,-3.79135 -8.46835,-8.46835 0,-4.67701 3.79137,-8.46835 8.46835,-8.46835 4.67701,0 8.46836,3.79134 8.46836,8.46835 z"
                 style="fill:#9999ff;fill-opacity:1;fill-rule:nonzero;stroke:none"
                 id="path100"
                 inkscape:connector-curvature="0" /></g><g
               id="g102"
               transform="translate(70.866,-53.253)"><g
                 id="g104" /><g
                 id="g106"
                 transform="translate(-70.866,53.253)" /></g></g><g
             id="g108"><g
               id="g110"><path
                 d="m 79.33539,-81.60057 c 0,4.677 -3.79135,8.46835 -8.46836,8.46835 -4.67698,0 -8.46835,-3.79135 -8.46835,-8.46835 0,-4.67699 3.79137,-8.46835 8.46835,-8.46835 4.67701,0 8.46836,3.79136 8.46836,8.46835 z"
                 style="fill:#9999ff;fill-opacity:1;fill-rule:nonzero;stroke:none"
                 id="path112"
                 inkscape:connector-curvature="0" /></g><g
               id="g114"
               transform="translate(70.866,-81.6)"><g
                 id="g116" /><g
                 id="g118"
                 transform="translate(-70.866,81.6)" /></g></g><g
             id="g120"
             transform="translate(3.2,-6.4)"><g
               id="g122"
               transform="translate(40.414,3.487)"><g
                 id="g124"
                 transform="translate(14.816,0)"><g
                   id="g126"
                   transform="translate(-95.644,-93.555)"><text
                     transform="matrix(1,0,0,-1,95.644,93.555)"
                     style="font-variant:normal;font-weight:normal;font-size:9.96259975px;font-family:CMR10;-inkscape-font-specification:CMR10;writing-mode:lr-tb;fill:#000000;fill-opacity:1;fill-rule:nonzero;stroke:none"
                     id="text128"><tspan
                       x="0"
                       y="0"
                       sodipodi:role="line"
                       id="tspan132"
                       style="font-style:normal;font-variant:normal;font-weight:300;font-stretch:normal;font-size:8px;font-family:'PingFang TC';-inkscape-font-specification:'PingFang TC Light'">隐含层</tspan></text>
<g
                     id="g134"
                     transform="translate(80.828,93.555)" /></g></g><g
                 id="g136"
                 transform="translate(-40.414,-3.487)" /></g></g><g
             id="g138"><g
               id="g140"><path
                 d="m 8.51523,-37.3774 52.40759,10.48189"
                 style="fill:none;stroke:#8c8c8c;stroke-width:0.3985;stroke-linecap:butt;stroke-linejoin:miter;stroke-miterlimit:10;stroke-dasharray:none;stroke-opacity:1"
                 id="path142"
                 inkscape:connector-curvature="0" /><g
                 id="g144"
                 transform="matrix(0.98242,0.19647,-0.19647,0.98242,60.92282,-26.89552)"><g
                   id="g146"><path
                     d="M -1.19551,1.59401 C -1.09587,0.99626 0,0.09961 0.29886,0 0,-0.09961 -1.09587,-0.99626 -1.19551,-1.59401"
                     style="fill:none;stroke:#8c8c8c;stroke-width:0.31878999;stroke-linecap:round;stroke-linejoin:round;stroke-miterlimit:10;stroke-dasharray:none;stroke-opacity:1"
                     id="path148"
                     inkscape:connector-curvature="0" /></g></g></g></g><g
             id="g150"><g
               id="g152"><path
                 d="m 8.51523,-40.78328 52.40759,-10.4819"
                 style="fill:none;stroke:#8c8c8c;stroke-width:0.3985;stroke-linecap:butt;stroke-linejoin:miter;stroke-miterlimit:10;stroke-dasharray:none;stroke-opacity:1"
                 id="path154"
                 inkscape:connector-curvature="0" /><g
                 id="g156"><g
                   id="g158"
                   transform="matrix(0.98242,-0.19647,0.19647,0.98242,60.92282,-51.26517)"><g
                     id="g160"><path
                       d="M -1.19551,1.59401 C -1.09587,0.99626 0,0.09961 0.29886,0 0,-0.09961 -1.09587,-0.99626 -1.19551,-1.59401"
                       style="fill:none;stroke:#8c8c8c;stroke-width:0.31878999;stroke-linecap:round;stroke-linejoin:round;stroke-miterlimit:10;stroke-dasharray:none;stroke-opacity:1"
                       id="path162"
                       inkscape:connector-curvature="0" /></g></g></g></g></g><g
             id="g164"><g
               id="g166"><path
                 d="M 7.43243,-43.53964 62.14917,-76.37007"
                 style="fill:none;stroke:#8c8c8c;stroke-width:0.3985;stroke-linecap:butt;stroke-linejoin:miter;stroke-miterlimit:10;stroke-dasharray:none;stroke-opacity:1"
                 id="path168"
                 inkscape:connector-curvature="0" /><g
                 id="g170"><g
                   id="g172"
                   transform="matrix(0.86127,-0.51674,0.51674,0.86127,62.14917,-76.37006)"><g
                     id="g174"><path
                       d="M -1.19551,1.59401 C -1.09587,0.99626 0,0.09961 0.29886,0 0,-0.09961 -1.09587,-0.99626 -1.19551,-1.59401"
                       style="fill:none;stroke:#8c8c8c;stroke-width:0.31878999;stroke-linecap:round;stroke-linejoin:round;stroke-miterlimit:10;stroke-dasharray:none;stroke-opacity:1"
                       id="path176"
                       inkscape:connector-curvature="0" /></g></g></g></g></g><g
             id="g178"><g
               id="g180"><path
                 d="m 7.43243,-62.96785 54.71674,32.83041"
                 style="fill:none;stroke:#8c8c8c;stroke-width:0.3985;stroke-linecap:butt;stroke-linejoin:miter;stroke-miterlimit:10;stroke-dasharray:none;stroke-opacity:1"
                 id="path182"
                 inkscape:connector-curvature="0" /><g
                 id="g184"><g
                   id="g186"
                   transform="matrix(0.86127,0.51674,-0.51674,0.86127,62.14917,-30.13745)"><g
                     id="g188"><path
                       d="M -1.19551,1.59401 C -1.09587,0.99626 0,0.09961 0.29886,0 0,-0.09961 -1.09587,-0.99626 -1.19551,-1.59401"
                       style="fill:none;stroke:#8c8c8c;stroke-width:0.31878999;stroke-linecap:round;stroke-linejoin:round;stroke-miterlimit:10;stroke-dasharray:none;stroke-opacity:1"
                       id="path190"
                       inkscape:connector-curvature="0" /></g></g></g></g></g><g
             id="g192"><g
               id="g194"><path
                 d="m 8.51523,-65.72421 52.40759,10.48189"
                 style="fill:none;stroke:#8c8c8c;stroke-width:0.3985;stroke-linecap:butt;stroke-linejoin:miter;stroke-miterlimit:10;stroke-dasharray:none;stroke-opacity:1"
                 id="path196"
                 inkscape:connector-curvature="0" /><g
                 id="g198"><g
                   id="g200"
                   transform="matrix(0.98242,0.19647,-0.19647,0.98242,60.92282,-55.24234)"><g
                     id="g202"><path
                       d="M -1.19551,1.59401 C -1.09587,0.99626 0,0.09961 0.29886,0 0,-0.09961 -1.09587,-0.99626 -1.19551,-1.59401"
                       style="fill:none;stroke:#8c8c8c;stroke-width:0.31878999;stroke-linecap:round;stroke-linejoin:round;stroke-miterlimit:10;stroke-dasharray:none;stroke-opacity:1"
                       id="path204"
                       inkscape:connector-curvature="0" /></g></g></g></g></g><g
             id="g206"><g
               id="g208"><path
                 d="M 8.51523,-69.1301 60.92282,-79.612"
                 style="fill:none;stroke:#8c8c8c;stroke-width:0.3985;stroke-linecap:butt;stroke-linejoin:miter;stroke-miterlimit:10;stroke-dasharray:none;stroke-opacity:1"
                 id="path210"
                 inkscape:connector-curvature="0" /><g
                 id="g212"><g
                   id="g214"
                   transform="matrix(0.98242,-0.19647,0.19647,0.98242,60.92282,-79.61198)"><g
                     id="g216"><path
                       d="M -1.19551,1.59401 C -1.09587,0.99626 0,0.09961 0.29886,0 0,-0.09961 -1.09587,-0.99626 -1.19551,-1.59401"
                       style="fill:none;stroke:#8c8c8c;stroke-width:0.31878999;stroke-linecap:round;stroke-linejoin:round;stroke-miterlimit:10;stroke-dasharray:none;stroke-opacity:1"
                       id="path218"
                       inkscape:connector-curvature="0" /></g></g></g></g></g><g
             id="g220"><g
               id="g222"><path
                 d="m 150.20244,-53.25375 c 0,4.677 -3.79135,8.46835 -8.46835,8.46835 -4.67699,0 -8.46836,-3.79135 -8.46836,-8.46835 0,-4.67701 3.79137,-8.46835 8.46836,-8.46835 4.677,0 8.46835,3.79134 8.46835,8.46835 z"
                 style="fill:#ff8080;fill-opacity:1;fill-rule:nonzero;stroke:none"
                 id="path224"
                 inkscape:connector-curvature="0" /></g></g><g
             id="g244"
             transform="translate(4.8,-6.4)"><g
               id="g246"
               transform="translate(111.281,3.542)"><g
                 id="g248"
                 transform="translate(14.4,0)"><g
                   id="g250"
                   transform="translate(-166.095,-93.61)"><text
                     transform="matrix(1,0,0,-1,166.095,93.61)"
                     style="font-variant:normal;font-weight:normal;font-size:9.96259975px;font-family:CMR10;-inkscape-font-specification:CMR10;writing-mode:lr-tb;fill:#000000;fill-opacity:1;fill-rule:nonzero;stroke:none"
                     id="text252"><tspan
                       x="0"
                       y="0"
                       sodipodi:role="line"
                       id="tspan256"
                       style="font-style:normal;font-variant:normal;font-weight:300;font-stretch:normal;font-size:8px;font-family:'PingFang TC';-inkscape-font-specification:'PingFang TC Light'">输出层</tspan></text>
<g
                     id="g258"
                     transform="translate(151.695,93.61)" /></g></g><g
                 id="g260"
                 transform="translate(-111.281,-3.542)" /></g></g><g
             id="g262"><g
               id="g264"><path
                 d="m 78.91475,-28.12607 53.3936,-21.35743"
                 style="fill:none;stroke:#8c8c8c;stroke-width:0.3985;stroke-linecap:butt;stroke-linejoin:miter;stroke-miterlimit:10;stroke-dasharray:none;stroke-opacity:1"
                 id="path266"
                 inkscape:connector-curvature="0" /><g
                 id="g268"
                 transform="matrix(0.92848,-0.37143,0.37143,0.92848,132.30835,-49.4835)"><g
                   id="g270"><path
                     d="M -1.19551,1.59401 C -1.09587,0.99626 0,0.09961 0.29886,0 0,-0.09961 -1.09587,-0.99626 -1.19551,-1.59401"
                     style="fill:none;stroke:#8c8c8c;stroke-width:0.31878999;stroke-linecap:round;stroke-linejoin:round;stroke-miterlimit:10;stroke-dasharray:none;stroke-opacity:1"
                     id="path272"
                     inkscape:connector-curvature="0" /></g></g></g></g><g
             id="g274"><g
               id="g276"><path
                 d="m 79.53465,-53.25375 52.07727,0"
                 style="fill:none;stroke:#8c8c8c;stroke-width:0.3985;stroke-linecap:butt;stroke-linejoin:miter;stroke-miterlimit:10;stroke-dasharray:none;stroke-opacity:1"
                 id="path278"
                 inkscape:connector-curvature="0" /><g
                 id="g280"><g
                   id="g282"
                   transform="translate(131.61192,-53.25375)"><g
                     id="g284"><path
                       d="M -1.19551,1.59401 C -1.09587,0.99626 0,0.09961 0.29886,0 0,-0.09961 -1.09587,-0.99626 -1.19551,-1.59401"
                       style="fill:none;stroke:#8c8c8c;stroke-width:0.31878999;stroke-linecap:round;stroke-linejoin:round;stroke-miterlimit:10;stroke-dasharray:none;stroke-opacity:1"
                       id="path286"
                       inkscape:connector-curvature="0" /></g></g></g></g></g><g
             id="g288"><g
               id="g290"><path
                 d="m 78.91475,-78.38144 53.3936,21.35744"
                 style="fill:none;stroke:#8c8c8c;stroke-width:0.3985;stroke-linecap:butt;stroke-linejoin:miter;stroke-miterlimit:10;stroke-dasharray:none;stroke-opacity:1"
                 id="path292"
                 inkscape:connector-curvature="0" /><g
                 id="g294"><g
                   id="g296"
                   transform="matrix(0.92848,0.37143,-0.37143,0.92848,132.30835,-57.024)"><g
                     id="g298"><path
                       d="M -1.19551,1.59401 C -1.09587,0.99626 0,0.09961 0.29886,0 0,-0.09961 -1.09587,-0.99626 -1.19551,-1.59401"
                       style="fill:none;stroke:#8c8c8c;stroke-width:0.31878999;stroke-linecap:round;stroke-linejoin:round;stroke-miterlimit:10;stroke-dasharray:none;stroke-opacity:1"
                       id="path300"
                       inkscape:connector-curvature="0" /></g></g></g></g></g></g></g></g></g></svg>